<?xml version="1.0" encoding="UTF-8"?><!DOCTYPE svg PUBLIC "-//W3C//DTD SVG 1.1//EN" "http://www.w3.org/Graphics/SVG/1.1/DTD/svg11.dtd"><svg xmlns="http://www.w3.org/2000/svg"><symbol id="android-checkbox" viewBox="0 0 512 512">
  <path d="M405 64H107c-24 0-43 19-43 43v298c0 24 19 43 43 43h298c24 0 43-19 43-43V107c0-24-19-43-43-43zM213 363L107 256l30-30 76 77 162-162 30 30-192 192z"/>
</symbol><symbol id="arrow-right-c" viewBox="0 0 512 512">
  <path d="M323 128l100 105c6 6 9 14 9 23s-3 16-9 22L323 384a30 30 0 0 1-44 0 33 33 0 0 1 1-46l48-50H111c-17 0-31-14-31-32s14-32 31-32h217l-49-50a33 33 0 0 1 0-46c12-12 32-12 44 0z"/>
</symbol><symbol id="chatbox-working" viewBox="0 0 512 512">
  <path d="M124 400h153c14 0 14 0 21 5l86 59v-64h4c42 0 76-32 76-71V120c0-40-34-72-76-72H124c-42 0-76 32-76 72v209c0 39 34 71 76 71zm228-208a32 32 0 1 1 0 64 32 32 0 0 1 0-64zm-96 0a32 32 0 1 1 0 64 32 32 0 0 1 0-64zm-96 0a32 32 0 1 1 0 64 32 32 0 0 1 0-64z"/>
</symbol><symbol id="ios-cart-outline" viewBox="0 0 512 512">
  <path d="M160 400a24 24 0 1 0 0 48 24 24 0 0 0 0-48zm0 32a8 8 0 1 1 0-16 8 8 0 0 1 0 16zm225-32a24 24 0 1 0 0 48 24 24 0 0 0 0-48zm0 32a8 8 0 1 1 0-16 8 8 0 0 1 0 16zm63-304L123 96c-1-7-4-15-12-21-9-8-24-11-47-11v16c19 0 31 3 37 7 5 4 6 9 7 16l43 234c2 15 7 25 13 33 7 9 17 14 28 14h240v-16H192c-5 0-19 0-26-34l-5-30 271-48 16-128zm-29 114l-261 46-32-176 304 31-11 99z"/>
</symbol><symbol id="ios-heart" viewBox="0 0 512 512">
  <path d="M359 80c-39 0-82 18-103 53-21-35-64-53-103-53-69 0-121 43-121 116 0 31 13 72 41 105 28 34 45 52 100 88 55 37 83 43 83 43s28-6 83-43c55-36 72-54 100-88 28-33 41-74 41-105 0-73-52-116-121-116z"/>
</symbol><symbol id="ios-infinite-outline" viewBox="0 0 512 512">
  <path d="M451 188a99 99 0 0 0-69-28c-27 0-52 10-70 28l-42 41 13 14 43-42a80 80 0 0 1 112 0c30 31 30 80-1 110a80 80 0 0 1-111 0L200 188a99 99 0 0 0-70-28c-26 0-51 10-69 28a95 95 0 0 0 0 136 99 99 0 0 0 139 0l42-41-13-14-43 42a80 80 0 0 1-56 22c-21 0-41-8-55-22a76 76 0 0 1 0-110 80 80 0 0 1 112 0l125 123a99 99 0 0 0 139 0 94 94 0 0 0 0-136z"/>
</symbol><symbol id="ios-lightbulb-outline" viewBox="0 0 512 512">
  <path d="M400 173c0-78-66-141-144-141S112 95 112 173c0 31 13 59 30 83 11 15 21 28 31 45 22 38 19 74 19 82v1h128v-1c0-9-4-44 18-82l32-45c17-24 30-52 30-83zm-49 81l-2 3c-8 11-16 22-24 36-18 30-21 58-21 75h-16V256l32-64h-17l-31 64v112h-32V256l-31-64h-17l32 64v112h-16a158 158 0 0 0-34-96l-19-26c-16-21-27-47-27-73 0-34 16-65 40-89s55-36 88-36 65 13 88 36c24 24 40 55 40 89 0 26-11 52-27 73l-6 8zM224 464h64v16h-64zm-16-32h96v16h-96zm0-32h96v16h-96z"/>
</symbol><symbol id="ios-pulse" viewBox="0 0 512 512">
  <path d="M448 288c-15 0-28 11-31 25h-59l-30-91a8 8 0 0 0-16 0l-54 190-58-349a8 8 0 0 0-16-1l-62 251H32v16h96c4 0 7-3 8-6l54-220 58 346a8 8 0 0 0 16 1l57-198 23 72c1 3 5 5 8 5h65a32 32 0 1 0 31-41z"/>
</symbol><symbol id="ios-settings" viewBox="0 0 512 512">
  <path d="M352 104a16 16 0 1 1 0 32 16 16 0 0 1 0-32m0-16a32 32 0 1 0 0 64 32 32 0 0 0 0-64zm0 288a16 16 0 1 1 0 32 16 16 0 0 1 0-32m0-16a32 32 0 1 0 0 64 32 32 0 0 0 0-64zM160 240a16 16 0 1 1 0 32 16 16 0 0 1 0-32m0-16a32 32 0 1 0 0 64 32 32 0 0 0 0-64zm47 24h273v16H207l1-8-1-8zm-95 8l1 8H32v-16h81l-1 8zm287 128h81v16h-81l1-8-1-8zm-95 8l1 8H32v-16h273l-1 8zm95-280h81v16h-81l1-8-1-8zm-94 0l-1 8 1 8H32v-16h273z"/>
</symbol><symbol id="ios-shuffle" viewBox="0 0 512 512">
  <path d="M362 207l-10-12 62-51h-46c-94 0-129 75-164 139l-5 9c-20 36-41 61-65 75-13 8-33 17-70 17v-16c48 0 83-14 121-84l5-9c35-65 75-147 178-147h46l-62-52 10-12 86 72-86 71z"/>
  <path d="M199 220c-20-36-41-61-65-75-13-8-33-17-70-17v16c48 0 83 14 121 84l5 9 1 2 9-16-1-3zm163 85l-10 12 62 51h-46c-73 0-111-45-140-96a3466 3466 0 0 0-9 17c31 50 72 95 149 95h46l-62 52 10 12 86-72-86-71z"/>
</symbol><symbol id="iphone" viewBox="0 0 512 512">
  <path d="M328 64H184c-13 0-24 11-24 24v336c0 13 11 24 24 24h144c13 0 24-11 24-24V88c0-13-11-24-24-24zm-88 36c0-2 2-4 4-4h24c2 0 4 2 4 4s-2 4-4 4h-24c-2 0-4-2-4-4zm-12-4c2 0 4 2 4 4s-2 4-4 4-4-2-4-4 2-4 4-4zm28 336a16 16 0 1 1 0-32 16 16 0 0 1 0 32zm80-48H176V128h160v256z"/>
</symbol><symbol id="location" viewBox="0 0 512 512">
  <path d="M256 64c-66 0-119 54-119 120 0 115 119 264 119 264s119-149 119-264c0-66-53-120-119-120zm0 178c-31 0-56-25-56-57a56 56 0 1 1 112 0c0 32-25 57-56 57z"/>
</symbol><symbol id="search" viewBox="0 0 512 512">
  <path d="M445 386.7l-84.8-85.9c13.8-24.1 21-50.9 21-77.9C381.2 135.3 310 64 222.6 64 135.2 64 64 135.3 64 222.9c0 87.6 71.2 158.9 158.6 158.9 27.9 0 55.5-7.7 80.1-22.4l84.4 85.6c1.9 1.9 4.6 3.1 7.3 3.1s5.4-1.1 7.3-3.1l43.3-43.8c4-4.1 4-10.5 0-14.5zM222.6 125.9c53.4 0 96.8 43.5 96.8 97s-43.4 97-96.8 97-96.8-43.5-96.8-97 43.4-97 96.8-97z"/>
</symbol><symbol id="settings" viewBox="0 0 512 512">
  <path d="M450 138l-48 49-2 3-2 1-4 2-4-2-1-1-3-3-41-42-2-2-2-2-2-5 2-4 1-1 2-3 48-48c-5-11-24-15-35-15a78 78 0 0 0-55 28 97 97 0 0 0-18 101c1 5 0 10-4 13l-38 36-13-13c-2-2-6-3-10-1l-6 3c-22-23-32-32-35-43-3-12 0-28 3-33 2-5 10-9 17-10l8 9c2 2 5 2 7 0l31-31c2-2 2-6 0-8l-50-50c-2-2-5-2-7 0l-31 31c-2 2-2 5 0 7l4 4c0 5-1 12-5 16-6 7-19-1-27 5a217 217 0 0 0-72 96c-17 42-4 82 6 93 5 5 14 11 12 0-1-10-4-47 8-62s28-27 48-28 31 6 56 32l-3 5c-1 3 0 8 2 10l12 12-97 93c-17 15-16 41-1 56s41 17 55 0l92-99c49 53 93 108 93 108 2 2 5 2 7 0l50-51c2-2 2-5 0-7 0 0-55-46-107-96l36-39c3-3 8-5 13-4l4 2c33 10 68 5 94-20l3-2c18-19 23-37 25-54 1-10-4-30-14-36z"/>
</symbol><symbol id="social-facebook" viewBox="0 0 512 512">
  <path d="M288 192v-38c0-17 4-26 31-26h33V64h-56c-68 0-91 31-91 85v43h-45v64h45v192h83V256h56l8-64h-64z"/>
</symbol><symbol id="social-instagram" viewBox="0 0 512 512">
  <circle cx="256" cy="255.8" r="80"/>
  <path d="M177.8 176.9a111.4 111.4 0 0 1 158.4 0c13.4 13.5 23 29.6 28.2 47.6h84.1v-113c0-26.5-20.5-47-47-47h-288a48 48 0 0 0-49 47v113h85c5.3-18 14.9-34.2 28.3-47.6zm238.7-29.2c0 7-5.7 12.8-12.8 12.8h-38.4c-7 0-12.8-5.7-12.8-12.8v-38.4c0-7 5.7-12.8 12.8-12.8h38.4c7 0 12.8 5.7 12.8 12.8v38.4zm-80.3 187.6C315 356.4 286.9 368 257 368s-58-11.5-79.2-32.7a112.3 112.3 0 0 1-32.8-78.8H64.5v143c0 26.5 22.5 49 49 49h288a48 48 0 0 0 47-49v-143H369a112 112 0 0 1-32.8 78.8z"/>
</symbol><symbol id="social-linkedin" viewBox="0 0 512 512">
  <path d="M417 64H97c-18 0-33 13-33 30v321c0 17 15 33 33 33h320c18 0 31-16 31-33V94c0-17-13-30-31-30zM183 384h-55V213h55v171zm-26-197c-18 0-29-13-29-29 0-17 12-30 30-30s29 13 29 30c0 16-11 29-30 29zm227 197h-55v-93c0-23-8-38-28-38-15 0-24 10-28 20-2 4-2 9-2 14v97h-55V213h55v24c8-12 21-28 50-28 36 0 63 24 63 75v100z"/>
</symbol><symbol id="social-pinterest" viewBox="0 0 512 512">
  <path d="M256 32a224 224 0 0 0-90 429c-1-15 0-34 4-51l29-122s-7-15-7-36c0-33 19-58 43-58 20 0 30 16 30 34 0 20-13 51-20 79-5 24 12 44 36 44 42 0 71-55 71-120 0-49-34-85-94-85-68 0-110 50-110 107 0 19 6 33 15 44 4 5 5 7 3 12l-5 18c-1 6-6 8-11 6-31-13-46-47-46-86 0-63 54-140 160-140 86 0 142 62 142 129 0 88-49 153-121 153-24 0-47-13-54-28l-16 62c-5 17-14 34-23 48a224 224 0 1 0 64-439z"/>
</symbol><symbol id="social-twitter" viewBox="0 0 512 512">
  <path d="M492 110c-17 7-36 12-56 15 20-12 36-31 43-54-19 11-39 19-61 24a97 97 0 0 0-165 88c-81-4-152-43-200-101a97 97 0 0 0 30 129c-16 0-31-5-44-12v1c0 47 33 86 78 95a97 97 0 0 1-44 2c12 38 48 66 91 67a194 194 0 0 1-144 40 274 274 0 0 0 424-244c19-14 35-31 48-50z"/>
</symbol><symbol id="social-wordpress-outline" viewBox="0 0 512 512">
  <path d="M255.9 64C150.2 64 64 150.2 64 256.1 64 361.9 150.2 448 255.9 448c8.5 0 16.8-.5 24.9-1.8 85.7-11 153.8-78.7 165.3-164.1 1.3-8.5 1.9-17.2 1.9-26C448 150.2 361.8 64 255.9 64zM83.4 256.1c0-25 5.4-48.8 15-70.2l82.3 225.5c-57.6-28-97.3-87.1-97.3-155.3zm194.9 171.2c-7.3.9-14.8 1.4-22.4 1.4-16.9 0-33.2-2.5-48.6-7.1l18.8-55h.1l32.7-95.5L312 416.5c.4.8.9 1.6 1.3 2.3-11.2 4-22.9 6.8-35 8.5zm1.5-252.2c10.4-.5 19.7-1.6 19.7-1.6 9.4-1 8.2-14.8-1.1-14.2 0 0-28 2.2-46 2.2-16.9 0-45.5-2.2-45.5-2.2-9.2-.6-10.4 13.7-1 14.2 0 0 8.7 1.1 18.1 1.6l26.9 73.7-37.8 113.3-62.9-187c10.5-.5 19.8-1.6 19.8-1.6 9.2-1 8.2-14.8-1.1-14.2 0 0-27.9 2.2-46 2.2-3.3 0-7.1-.1-11.1-.2a172.3 172.3 0 0 1 144.1-77.7c45 0 85.9 17.2 116.6 45.2-.8 0-1.5-.1-2.3-.1-17 0-29 14.8-29 30.7 0 14.2 8.2 26.2 16.9 40.4 6.6 11.5 14.3 26.3 14.3 47.6 0 14.8-4.4 33.4-13.1 55.7L342 360.7l-62.2-185.6zm62.9 230.2l13.7-39.7 39-112.8c9.9-24.6 13.1-44.3 13.1-61.8 0-6.3-.4-12.3-1.1-17.8 13.5 24.6 21.2 52.8 21.2 82.9 0 8-.5 15.8-1.5 23.5-7.4 53.7-39.5 99.6-84.4 125.7z"/>
</symbol><symbol id="social-youtube" viewBox="0 0 512 512">
  <path d="M509 149c0-45-33-81-74-81-56-3-112-4-170-4h-18c-58 0-114 1-170 4-40 0-73 36-73 81a1465 1465 0 0 0-1 214c0 45 34 81 74 81a3729 3729 0 0 0 358 0c40 0 74-36 74-81a1529 1529 0 0 0 0-214zM207 354V157l145 99-145 98z"/>
</symbol></svg>