<svg xmlns="http://www.w3.org/2000/svg" version="1" viewBox="0 0 512 512">
  <path d="M400 173c0-78-66-141-144-141S112 95 112 173c0 31 13 59 30 83 11 15 21 28 31 45 22 38 19 74 19 82v1h128v-1c0-9-4-44 18-82l32-45c17-24 30-52 30-83zm-49 81l-2 3c-8 11-16 22-24 36-18 30-21 58-21 75h-16V256l32-64h-17l-31 64v112h-32V256l-31-64h-17l32 64v112h-16a158 158 0 0 0-34-96l-19-26c-16-21-27-47-27-73 0-34 16-65 40-89s55-36 88-36 65 13 88 36c24 24 40 55 40 89 0 26-11 52-27 73l-6 8zM224 464h64v16h-64zm-16-32h96v16h-96zm0-32h96v16h-96z"/>
</svg>