<svg xmlns="http://www.w3.org/2000/svg" version="1" viewBox="0 0 512 512">
  <path d="M450 138l-48 49-2 3-2 1-4 2-4-2-1-1-3-3-41-42-2-2-2-2-2-5 2-4 1-1 2-3 48-48c-5-11-24-15-35-15a78 78 0 0 0-55 28 97 97 0 0 0-18 101c1 5 0 10-4 13l-38 36-13-13c-2-2-6-3-10-1l-6 3c-22-23-32-32-35-43-3-12 0-28 3-33 2-5 10-9 17-10l8 9c2 2 5 2 7 0l31-31c2-2 2-6 0-8l-50-50c-2-2-5-2-7 0l-31 31c-2 2-2 5 0 7l4 4c0 5-1 12-5 16-6 7-19-1-27 5a217 217 0 0 0-72 96c-17 42-4 82 6 93 5 5 14 11 12 0-1-10-4-47 8-62s28-27 48-28 31 6 56 32l-3 5c-1 3 0 8 2 10l12 12-97 93c-17 15-16 41-1 56s41 17 55 0l92-99c49 53 93 108 93 108 2 2 5 2 7 0l50-51c2-2 2-5 0-7 0 0-55-46-107-96l36-39c3-3 8-5 13-4l4 2c33 10 68 5 94-20l3-2c18-19 23-37 25-54 1-10-4-30-14-36z"/>
</svg>